#!OML:ASF E:\motion texture\Top Level 1\Subject 1\Session 1\male.ASF
:FULLY-SPECIFIED
:DEGREES
707
root -41.3301 17.8323 2.17066 451.335 -82.1835 -445.615
lowerback -1.71942 3.53859 8.64748
upperback -2.41469 4.56704 3.16843
thorax -1.12522 2.12553 -1.49482
lowerneck -20.2694 -3.84924 -5.48014
upperneck 24.1499 -4.7461 3.23369
head 11.4396 -2.3144 1.34211
rclavicle 1.10489e-014 -4.25399e-014
rhumerus 3.83128 15.154 -81.5021
rradius 76.2027
rwrist 1.17131
rhand -19.2836 -30.2481
rfingers 7.12502
rthumb 7.03142 -420.111
lclavicle 1.10489e-014 -4.25399e-014
lhumerus -39.9623 30.3797 74.2041
lradius 18.2642
lwrist -43.1987
lhand -7.66231 20.9421
lfingers 7.12502
lthumb 18.2337 50.1075
rfemur -1.81957 1.5414 30.5981
rtibia 24.5008
rfoot -12.3533 -15.0629
rtoes -4.99142
lfemur -26.1344 -3.60225 -7.62037
ltibia 14.5996
lfoot -1.53445 7.28495
ltoes -10.8922
708
root -41.4668 17.8263 2.18785 451.934 -82.316 -446.246
lowerback -1.7615 3.52197 8.45499
upperback -2.40155 4.54507 3.05784
thorax -1.09469 2.12056 -1.50121
lowerneck -20.2166 -3.88771 -5.53044
upperneck 24.27 -4.83005 3.34826
head 11.4839 -2.34511 1.37969
rclavicle -7.918e-015 -3.06128e-014
rhumerus 3.08079 15.1418 -81.5591
rradius 76.0858
rwrist 1.40302
rhand -19.2629 -30.1034
rfingers 7.12502
rthumb 7.05141 -419.966
lclavicle -7.918e-015 -3.06128e-014
lhumerus -40.2186 30.9836 73.7546
lradius 18.0663
lwrist -43.8132
lhand -7.63623 20.9095
lfingers 7.12502
lthumb 18.2588 50.0725
rfemur -2.03764 1.39413 30.3215
rtibia 25.6324
rfoot -12.1171 -15.0053
rtoes -5.76174
lfemur -25.8683 -3.53463 -7.9302
ltibia 14.484
lfoot -1.32433 7.16497
ltoes -10.3454
709
root -41.6037 17.8215 2.20555 452.589 -82.4627 -446.942
lowerback -1.79762 3.49914 8.24662
upperback -2.38317 4.5157 2.94619
thorax -1.06372 2.11225 -1.50031
lowerneck -20.1658 -3.92006 -5.57683
upperneck 24.3948 -4.90546 3.45655
head 11.5298 -2.37247 1.41573
rclavicle -2.17203e-014 2.10712e-014
rhumerus 2.27477 15.1149 -81.6708
rradius 75.8817
rwrist 1.5799
rhand -19.2491 -29.969
rfingers 7.12502
rthumb 7.06469 -419.831
lclavicle -2.17203e-014 2.10712e-014
lhumerus -40.4635 31.5642 73.3142
lradius 17.8764
lwrist -44.427
lhand -7.5997 20.8754
lfingers 7.12502
lthumb 18.294 50.0352
rfemur -2.30014 1.23485 30.0176
rtibia 26.8203
rfoot -11.8353 -14.9509
rtoes -6.45857
lfemur -25.5776 -3.45153 -8.26365
ltibia 14.418
lfoot -1.13246 7.0401
ltoes -9.781
710
root -41.7406 17.8176 2.22368 453.278 -82.6237 -447.677
lowerback -1.82783 3.46952 8.02185
upperback -2.36021 4.47815 2.83376
thorax -1.03305 2.10018 -1.49158
lowerneck -20.1146 -3.94631 -5.61916
upperneck 24.523 -4.97253 3.55869
head 11.5765 -2.39656 1.45026
rclavicle -2.29526e-014 -2.94201e-014
rhumerus 1.41617 15.068 -81.8365
rradius 75.5876
rwrist 1.70857
rhand -19.2452 -29.8472
rfingers 7.12502
rthumb 7.06842 -419.709
lclavicle -2.29526e-014 -2.94201e-014
lhumerus -40.6928 32.1193 72.887
lradius 17.693
lwrist -45.0372
lhand -7.55636 20.8343
lfingers 7.12502
lthumb 18.3357 49.9902
rfemur -2.60834 1.06099 29.6869
rtibia 28.0604
rfoot -11.5054 -14.902
rtoes -7.0717
lfemur -25.2641 -3.35545 -8.62072
ltibia 14.3974
lfoot -0.961704 6.90835
ltoes -9.20556
711
root -41.8773 17.8148 2.24209 454.005 -82.7954 -448.457
lowerback -1.85154 3.43341 7.78274
upperback -2.33333 4.43285 2.72181
thorax -1.00358 2.08441 -1.47484
lowerneck -20.0629 -3.96639 -5.65806
upperneck 24.6545 -5.03102 3.65508
head 11.6238 -2.4173 1.48356
rclavicle 4.61017e-014 -1.03368e-014
rhumerus 0.50967 14.9955 -82.0561
rradius 75.1982
rwrist 1.79561
rhand -19.248 -29.7393
rfingers 7.12502
rthumb 7.06572 -419.601
lclavicle 4.61017e-014 -1.03368e-014
lhumerus -40.9032 32.6399 72.4813
lradius 17.5199
lwrist -45.6328
lhand -7.50514 20.791
lfingers 7.12502
lthumb 18.3849 49.9422
rfemur -2.96307 0.875747 29.335
rtibia 29.3481
rfoot -11.1272 -14.8629
rtoes -7.59045
lfemur -24.9293 -3.24675 -8.99517
ltibia 14.4173
lfoot -0.813042 6.77046
ltoes -8.62042
712
root -42.0136 17.813 2.26082 454.759 -82.9791 -449.27
lowerback -1.86773 3.39062 7.52961
upperback -2.30211 4.37958 2.61008
thorax -0.975328 2.06483 -1.45056
lowerneck -20.0112 -3.98095 -5.69367
upperneck 24.7884 -5.08152 3.7451
head 11.6714 -2.43502 1.51534
rclavicle 2.38507e-014 7.95139e-016
rhumerus -0.435442 14.8973 -82.3225
rradius 74.7095
rwrist 1.83914
rhand -19.2576 -29.6533
rfingers 7.12502
rthumb 7.05646 -419.516
lclavicle 2.38507e-014 7.95139e-016
lhumerus -41.0893 33.1242 72.1022
lradius 17.3563
lwrist -46.2096
lhand -7.45296 20.7395
lfingers 7.12502
lthumb 18.4351 49.8859
rfemur -3.36392 0.676707 28.9604
rtibia 30.6784
rfoot -10.702 -14.8333
rtoes -8.02082
lfemur -24.5734 -3.13028 -9.38821
ltibia 14.4722
lfoot -0.688261 6.62673
ltoes -8.02736
713
root -42.1497 17.8123 2.27972 455.541 -83.1713 -450.115
lowerback -1.87968 3.34131 7.26445
upperback -2.26747 4.31814 2.49969
thorax -0.947327 2.04127 -1.41847
lowerneck -19.9577 -3.98998 -5.72549
upperneck 24.9243 -5.12419 3.82857
head 11.719 -2.44982 1.54544
rclavicle 6.83516e-015 -3.97569e-015
rhumerus -1.41688 14.7684 -82.6348
rradius 74.1197
rwrist 1.84227
rhand -19.2737 -29.5897
rfingers 7.12502
rthumb 7.04095 -419.453
lclavicle 6.83516e-015 -3.97569e-015
lhumerus -41.2503 33.5685 71.7536
lradius 17.2054
lwrist -46.7611
lhand -7.39519 20.6862
lfingers 7.12502
lthumb 18.4907 49.8274
rfemur -3.80991 0.464186 28.5682
rtibia 32.0437
rfoot -10.2316 -14.8149
rtoes -8.35411
lfemur -24.1951 -3.00823 -9.79415
ltibia 14.5516
lfoot -0.585142 6.47982
ltoes -7.42814
714
root -42.2855 17.8126 2.2988 456.337 -83.3725 -450.979
lowerback -1.88701 3.28508 6.98806
upperback -2.22912 4.24799 2.3905
thorax -0.91935 2.01343 -1.37916
lowerneck -19.8984 -3.99207 -5.7578
upperneck 25.058 -5.15734 3.91145
head 11.7641 -2.46063 1.57711
rclavicle -3.417e-014 -2.54444e-014
rhumerus -2.42686 14.604 -82.9892
rradius 73.4254
rwrist 1.80619
rhand -19.2928 -29.5589
rfingers 7.12502
rthumb 7.02254 -419.422
lclavicle -3.417e-014 -2.54444e-014
lhumerus -41.3807 33.9664 71.4431
lradius 17.0692
lwrist -47.2761
lhand -7.3366 20.628
lfingers 7.12502
lthumb 18.5471 49.7638
rfemur -4.30017 0.236636 28.1588
rtibia 33.4373
rfoot -9.71939 -14.808
rtoes -8.59041
lfemur -23.7945 -2.88443 -10.2129
ltibia 14.6482
lfoot -0.501116 6.32891
ltoes -6.83636
715
root -42.4206 17.8139 2.31785 457.158 -83.5806 -451.873
lowerback -1.88781 3.22267 6.70041
upperback -2.18789 4.17028 2.28359
thorax -0.893252 1.98179 -1.33158
lowerneck -19.8436 -3.99087 -5.78431
upperneck 25.1974 -5.185 3.98359
head 11.8116 -2.46982 1.60475
rclavicle -3.86341e-014 -2.0276e-014
rhumerus -3.45974 14.4006 -83.38
rradius 72.6253
rwrist 1.73152
rhand -19.3076 -29.5756
rfingers 7.12502
rthumb 7.00827 -419.44
lclavicle -3.86341e-014 -2.0276e-014
lhumerus -41.4776 34.3158 71.1752
lradius 16.9493
lwrist -47.7489
lhand -7.27705 20.5688
lfingers 7.12502
lthumb 18.6043 49.6992
rfemur -4.83527 -0.00106288 27.7369
rtibia 34.8535
rfoot -9.16862 -14.8167
rtoes -8.73277
lfemur -23.3731 -2.76053 -10.6388
ltibia 14.7566
lfoot -0.436556 6.17718
ltoes -6.24667
716
root -42.5553 17.8162 2.33694 457.987 -83.7966 -452.777
lowerback -1.8859 3.1536 6.40261
upperback -2.14256 4.08388 2.17863
thorax -0.865484 1.94587 -1.27638
lowerneck -19.7892 -3.98477 -5.80724
upperneck 25.3376 -5.205 4.04822
head 11.8589 -2.47626 1.63031
rclavicle -5.63134e-014 -1.78906e-015
rhumerus -4.50732 14.1519 -83.8022
rradius 71.7175
rwrist 1.62179
rhand -19.3113 -29.6392
rfingers 7.12502
rthumb 7.00462 -419.503
lclavicle -5.63134e-014 -1.78906e-015
lhumerus -41.5347 34.6121 70.9576
lradius 16.8474
lwrist -48.1691
lhand -7.21939 20.5081
lfingers 7.12502
lthumb 18.6598 49.6331
rfemur -5.41248 -0.254058 27.3015
rtibia 36.2827
rfoot -8.58559 -14.8383
rtoes -8.78249
lfemur -22.9328 -2.64027 -11.0744
ltibia 14.8731
lfoot -0.393281 6.02349
ltoes -5.66928
